#!OML:ASF I:\Actors\actors\Patient Classification 2\Patient 1\Session 1\actor1.ASF
:FULLY-SPECIFIED
:DEGREES
134
root -0.591754 18.7255 4.61135 2.02057 -4.01497 -0.612048
lowerback 0.497952 0.961243 -1.38147
upperback -3.25657 1.2459 -0.0969926
thorax -3.65419 0.660528 0.627816
lowerneck -10.4941 -2.5624 -2.42741
upperneck 24.9004 -4.26465 4.39592
head 9.74663 -1.73524 1.45251
rclavicle 2.24751e-014 -5.96354e-016
rhumerus -56.9323 -13.4122 -78.3851
rradius 46.8372
rwrist 15.2086
rhand -1.36303 -41.0524
rfingers 7.12502
rthumb 24.2842 -69.5343
lclavicle 2.24751e-014 -5.96354e-016
lhumerus -47.2346 5.74906 85.3181
lradius 40.094
lwrist 1.37778
lhand -0.239222 -20.2696
lfingers 7.12502
lthumb 25.3612 8.06385
rfemur 0 0 0
rtibia 0
rfoot 0 0
rtoes 0
lfemur -4.08736 -8.02275 -15.0371
ltibia 20.4798
lfoot -23.6144 13.9816
ltoes -54.0626
135
root -0.589779 18.7238 4.62213 1.9529 -4.30429 -0.645963
lowerback 0.425798 1.0517 -1.25988
upperback -3.15877 1.37107 -0.108448
thorax -3.51142 0.717986 0.545999
lowerneck -10.4762 -2.50242 -2.50822
upperneck 24.4431 -4.21321 4.68197
head 9.5869 -1.69308 1.56918
rclavicle 3.6154e-015 -9.93923e-016
rhumerus -56.8823 -13.3282 -78.522
rradius 46.8075
rwrist 14.9429
rhand -2.25871 -40.4535
rfingers 7.12502
rthumb 23.4252 -69.0476
lclavicle 3.6154e-015 -9.93923e-016
lhumerus -47.3055 4.95415 85.8833
lradius 40.6429
lwrist 2.94586
lhand 0.286512 -19.564
lfingers 7.12502
lthumb 25.8648 8.69702
rfemur 0 0 0
rtibia 0
rfoot 0 0
rtoes 0
lfemur -3.91194 -7.95321 -15.0607
ltibia 20.5024
lfoot -23.7801 14.1474
ltoes -54.0545
136
root -0.618003 18.7457 4.55882 2.95917 -3.04154 -0.59357
lowerback 0.492409 0.59682 -1.69892
upperback -3.63774 0.749387 -0.0501315
thorax -4.04134 0.428647 0.86976
lowerneck -10.3575 -2.42592 -2.56484
upperneck 23.918 -4.15237 5.01791
head 9.38524 -1.64203 1.69965
rclavicle -6.44808e-015 5.56597e-015
rhumerus -56.8801 -13.1931 -78.6644
rradius 46.86
rwrist 15.0053
rhand -2.50449 -40.5043
rfingers 7.12502
rthumb 23.1894 -69.1283
lclavicle -6.44808e-015 5.56597e-015
lhumerus -47.5783 4.0148 86.5841
lradius 41.9967
lwrist 4.28117
lhand 0.817867 -17.5429
lfingers 7.12502
lthumb 26.3735 10.643
rfemur 0 0 0
rtibia 0
rfoot 0 0
rtoes 0
lfemur -5.63112 -6.81629 -14.5052
ltibia 20.557
lfoot -22.2966 12.376
ltoes -54.4764
137
root -0.61497 18.7423 4.56771 2.81415 -3.21948 -0.614218
lowerback 0.547769 0.636274 -1.58995
upperback -3.58173 0.803796 -0.0694588
thorax -4.01394 0.451226 0.786399
lowerneck -10.4001 -2.3872 -2.50576
upperneck 23.6676 -4.11746 5.10345
head 9.30471 -1.6139 1.72069
rclavicle 8.19987e-016 -6.95746e-015
rhumerus -56.911 -12.9247 -78.836
rradius 46.9677
rwrist 15.2406
rhand -2.1392 -41.1001
rfingers 7.12502
rthumb 23.5399 -69.6796
lclavicle 8.19987e-016 -6.95746e-015
lhumerus -48.0156 2.85437 87.367
lradius 43.581
lwrist 6.09094
lhand 0.829183 -16.8925
lfingers 7.12502
lthumb 26.3843 11.2918
rfemur 0 0 0
rtibia 0
rfoot 0 0
rtoes 0
lfemur -5.45852 -7.03273 -14.5659
ltibia 20.6975
lfoot -22.5898 12.6249
ltoes -54.3382
138
root -0.60502 18.7399 4.56837 2.70152 -3.2287 -0.753456
lowerback 0.660723 0.642232 -1.23686
upperback -3.50913 0.819653 -0.0863456
thorax -3.99685 0.446763 0.569881
lowerneck -10.5267 -2.35797 -2.42161
upperneck 23.4521 -4.08275 5.11341
head 9.25047 -1.58982 1.71082
rclavicle 6.00081e-015 6.55989e-015
rhumerus -56.8484 -12.5367 -79.1264
rradius 47.0708
rwrist 15.161
rhand -2.10953 -41.2867
rfingers 7.12502
rthumb 23.5683 -69.8625
lclavicle 6.00081e-015 6.55989e-015
lhumerus -48.4787 1.04992 88.4427
lradius 45.5821
lwrist 9.31228
lhand 0.690462 -17.1275
lfingers 7.12502
lthumb 26.2515 11.0765
rfemur 0 0 0
rtibia 0
rfoot 0 0
rtoes 0
lfemur -5.32233 -7.18358 -14.4835
ltibia 20.7468
lfoot -22.6938 12.773
ltoes -54.3461
139
root -0.577778 18.7373 4.55958 2.53094 -3.0591 -1.18536
lowerback 0.981188 0.615105 -0.2978
upperback -3.41359 0.808564 -0.093073
thorax -4.06469 0.410421 0.0345521
lowerneck -10.5526 -2.3269 -2.38159
upperneck 23.0608 -4.05925 5.25286
head 9.12052 -1.56532 1.75126
rclavicle 4.41053e-015 3.97569e-016
rhumerus -56.7302 -12.0936 -79.4878
rradius 47.2154
rwrist 14.817
rhand -2.32388 -41.1561
rfingers 7.12502
rthumb 23.3627 -69.7582
lclavicle 4.41053e-015 3.97569e-016
lhumerus -48.866 -0.838445 89.5034
lradius 47.8036
lwrist 12.9421
lhand 0.312577 -18.5496
lfingers 7.12502
lthumb 25.8897 9.70781
rfemur 0 0 0
rtibia 0
rfoot 0 0
rtoes 0
lfemur -5.12221 -7.2885 -14.1149
ltibia 20.7575
lfoot -22.6844 12.7435
ltoes -54.4041
140
root -0.606102 18.7411 4.56974 2.68865 -3.17603 -0.717329
lowerback 0.57265 0.663837 -1.20066
upperback -3.37056 0.850467 -0.12719
thorax -3.8024 0.458738 0.508526
lowerneck -10.6007 -2.33294 -2.36622
upperneck 22.7584 -4.06917 5.31804
head 9.0265 -1.56507 1.76703
rclavicle -1.74806e-014 5.36719e-015
rhumerus -56.6316 -11.5495 -79.828
rradius 47.3974
rwrist 14.4601
rhand -2.53066 -41.0261
rfingers 7.12502
rthumb 23.1643 -69.6533
lclavicle -1.74806e-014 5.36719e-015
lhumerus -49.286 -2.82189 90.6893
lradius 50.6282
lwrist 15.6334
lhand -0.978999 -19.2809
lfingers 7.12502
lthumb 24.6523 9.1513
rfemur 0 0 0
rtibia 0
rfoot 0 0
rtoes 0
lfemur -5.29962 -7.32015 -14.5339
ltibia 20.7343
lfoot -22.7289 12.8458
ltoes -54.3732
141
root -0.616739 18.742 4.57176 2.74747 -3.18197 -0.549434
lowerback 0.438696 0.67849 -1.52106
upperback -3.34553 0.865031 -0.10473
thorax -3.70668 0.475639 0.712346
lowerneck -10.7054 -2.36352 -2.36954
upperneck 22.6062 -4.08499 5.24739
head 8.99282 -1.58033 1.73951
rclavicle 1.50082e-014 -2.18663e-015
rhumerus -56.5536 -10.8887 -80.1456
rradius 47.6006
rwrist 14.1086
rhand -2.8277 -40.7649
rfingers 7.12502
rthumb 22.8793 -69.4276
lclavicle 1.50082e-014 -2.18663e-015
lhumerus -49.7062 -4.90932 91.9001
lradius 54.577
lwrist 18.7474
lhand -1.66383 -16.8729
lfingers 7.12502
lthumb 23.9958 11.6473
rfemur 0 0 0
rtibia 0
rfoot 0 0
rtoes 0
lfemur -5.37334 -7.25925 -14.6725
ltibia 20.6967
lfoot -22.6653 12.8327
ltoes -54.4175
